<svg width="24" height="24" viewBox="0 0 24 24" fill="none" xmlns="http://www.w3.org/2000/svg" data-reactroot="">
<path stroke-linejoin="round" stroke-linecap="round" stroke-width="1" stroke="#221b38" fill="none" d="M14.2764 3.55279C14.107 3.214 13.7607 3 13.382 3H10.618C10.2393 3 9.893 3.214 9.72361 3.55279L9 5H15L14.2764 3.55279Z"></path>
<path stroke-width="1" stroke="#221b38" fill="none" d="M12 21C15.3137 21 18 18.3137 18 15C18 11.6863 15.3137 9 12 9C8.68629 9 6 11.6863 6 15C6 18.3137 8.68629 21 12 21Z" clip-rule="evenodd" fill-rule="evenodd"></path>
<path stroke-linejoin="round" stroke-linecap="round" stroke-width="1" stroke="#221b38" fill="none" d="M5 5C3.34315 5 2 6.34315 2 8V16C2 17.6569 3.34315 19 5 19H7.52779C6.57771 17.9385 6 16.5367 6 15C6 11.6863 8.68629 9 12 9C15.3137 9 18 11.6863 18 15C18 16.5367 17.4223 17.9385 16.4722 19H19C20.6569 19 22 17.6569 22 16V8C22 6.34315 20.6569 5 19 5H5Z"></path>
<path stroke-width="1" stroke="#221b38" fill="none" d="M12 18C13.6569 18 15 16.6569 15 15C15 13.3431 13.6569 12 12 12C10.3431 12 9 13.3431 9 15C9 16.6569 10.3431 18 12 18Z" clip-rule="evenodd" fill-rule="evenodd"></path>
<rect stroke-linejoin="round" stroke-linecap="round" stroke-width="1" stroke="#221b38" fill="none" height="1" width="1" y="4" x="5"></rect>
<path stroke-linejoin="round" stroke-linecap="round" stroke-width="1" stroke="#221b38" d="M17 8H19"></path>
</svg>
