<svg xmlns="http://www.w3.org/2000/svg" viewBox="0 0 400 226">
  <g>
    <g fill="none" stroke="#000" stroke-linejoin="round" stroke-width="20">
      <rect width="400" height="226" rx="40" stroke="none"/>
      <rect x="10" y="10" width="380" height="206" rx="30" fill="none"/>
    </g>
    <path d="M-147.264-137.811h18.687V-31.07h-18.687Zm53.819,71.16a23.9,23.9,0,0,0,2.093,10.465,18.9,18.9,0,0,0,5.83,7.1,24.863,24.863,0,0,0,8.6,4.036,41.562,41.562,0,0,0,10.539,1.271A33.843,33.843,0,0,0-55.922-45.2,21.169,21.169,0,0,0-48.9-48.86a13.234,13.234,0,0,0,3.887-5.158,15.436,15.436,0,0,0,1.2-5.905q0-6.129-2.766-9.045a15.8,15.8,0,0,0-6.055-4.111,126.61,126.61,0,0,0-13.23-3.962q-7.55-1.869-18.612-4.859a39.906,39.906,0,0,1-11.436-4.709,27.282,27.282,0,0,1-7.251-6.5,22.836,22.836,0,0,1-3.812-7.624,30.581,30.581,0,0,1-1.121-8.222,27.776,27.776,0,0,1,3.364-13.978,29.917,29.917,0,0,1,8.9-9.792,39.117,39.117,0,0,1,12.558-5.756,55.032,55.032,0,0,1,14.2-1.869,55.846,55.846,0,0,1,15.772,2.168,38.894,38.894,0,0,1,13.006,6.5,31.857,31.857,0,0,1,8.9,10.689,31.592,31.592,0,0,1,3.289,14.725H-46.8q-.747-10.315-7.026-14.576t-16-4.261a34.99,34.99,0,0,0-6.727.673,21.374,21.374,0,0,0-6.279,2.242,13.779,13.779,0,0,0-4.709,4.261,11.516,11.516,0,0,0-1.869,6.727q0,5.681,3.513,8.9A22.751,22.751,0,0,0-76.7-97.447q.6.15,4.709,1.271t9.194,2.467q5.083,1.345,9.941,2.616t6.952,1.869a31.151,31.151,0,0,1,9.119,4.485,28.752,28.752,0,0,1,6.5,6.5A26.852,26.852,0,0,1-26.4-70.388a28.69,28.69,0,0,1,1.271,8.372,30.2,30.2,0,0,1-3.663,15.323A31.088,31.088,0,0,1-38.431-36.3a41.916,41.916,0,0,1-13.6,5.905,65.074,65.074,0,0,1-15.548,1.869,63.979,63.979,0,0,1-17.192-2.242,40.241,40.241,0,0,1-14.053-6.877A33.648,33.648,0,0,1-108.4-49.533a39.567,39.567,0,0,1-3.737-17.117ZM36.616-125.1a29.919,29.919,0,0,0-14.725,3.438A28.873,28.873,0,0,0,11.8-112.471,41.476,41.476,0,0,0,6.044-99.39,60.242,60.242,0,0,0,4.175-84.44a60.242,60.242,0,0,0,1.869,14.95A41.476,41.476,0,0,0,11.8-56.41a28.873,28.873,0,0,0,10.091,9.194,29.919,29.919,0,0,0,14.725,3.438,29.919,29.919,0,0,0,14.725-3.438A28.873,28.873,0,0,0,61.432-56.41a41.476,41.476,0,0,0,5.756-13.081,60.242,60.242,0,0,0,1.869-14.95,60.242,60.242,0,0,0-1.869-14.95,41.476,41.476,0,0,0-5.756-13.081,28.873,28.873,0,0,0-10.091-9.194A29.919,29.919,0,0,0,36.616-125.1Zm0-15.249a49.622,49.622,0,0,1,21.453,4.485A48.033,48.033,0,0,1,74.14-123.758a53.836,53.836,0,0,1,10.091,17.79A65.443,65.443,0,0,1,87.744-84.44a65.905,65.905,0,0,1-3.513,21.677A53.836,53.836,0,0,1,74.14-44.974,47.189,47.189,0,0,1,58.069-32.939a50.337,50.337,0,0,1-21.453,4.41,50.337,50.337,0,0,1-21.453-4.41A47.189,47.189,0,0,1-.907-44.974,53.836,53.836,0,0,1-11-62.764,65.905,65.905,0,0,1-14.512-84.44,65.443,65.443,0,0,1-11-105.968,53.837,53.837,0,0,1-.907-123.758a48.033,48.033,0,0,1,16.071-12.109A49.622,49.622,0,0,1,36.616-140.352Z" transform="translate(232 197)"/>
  </g>
</svg>
